<svg xmlns:gliffy="http://www.gliffy.com" xmlns:x="http://ns.adobe.com/Extensibility/1.0/" xmlns:i="http://ns.adobe.com/AdobeIllustrator/10.0/" xmlns:graph="http://ns.adobe.com/Graphs/1.0/" xmlns:a="http://ns.adobe.com/AdobeSVGViewerExtensions/3.0/" xmlns="http://www.w3.org/2000/svg" xmlns:xlink="http://www.w3.org/1999/xlink" width="980" height="380"><rect stroke="#000000" stroke-width="0" fill="#ffffff" x="0" y="0" width="979" height="379"/><g transform='translate(121.0,285.0) rotate(0.0 50.0 25.0)'><polygon points="0,15.0 75.0,15.0 75.0,0 100.0,25.0 75.0,50.0 75.0,35.0 0,35.0" stroke="#333333" stroke-width="2" fill="#ffffff"/><g ></g></g><g transform='translate(221.0,260.0) rotate(0.0 50.0 50.0)'><rect width="100.0" height="100.0" stroke="#333333" stroke-width="2" fill="#ffffff"/><g  transform='translate(0.0,55.0)'><text x='50.0' style='text-anchor: middle' y='-2.0'><tspan xml:space='preserve' font-size='12' font-family='Arial' fill='#000000' >branch</tspan></text></g></g><g transform='translate(761.0,260.0) rotate(0.0 50.0 50.0)'><rect width="100.0" height="100.0" stroke="#333333" stroke-width="2" fill="#ffffff"/><g  transform='translate(0.0,55.0)'><text x='50.0' style='text-anchor: middle' y='-2.0'><tspan xml:space='preserve' font-size='12' font-family='Arial' fill='#000000' >merge</tspan></text></g></g><g transform='translate(861.0,285.0) rotate(0.0 50.0 25.0)'><polygon points="0,15.0 75.0,15.0 75.0,0 100.0,25.0 75.0,50.0 75.0,35.0 0,35.0" stroke="#333333" stroke-width="2" fill="#ffffff"/><g ></g></g><g transform='translate(321.0,250.0) rotate(0.0 220.0 55.0)'><polygon points="0,33.0 385.0,33.0 385.0,0 440.0,55.0 385.0,110.0 385.0,77.0 0,77.0" stroke="#333333" stroke-width="2" fill="#ffffff"/><g ></g></g><g transform='translate(221.0,185.0) rotate(270.0 50.0 25.0)'><polygon points="0,15.0 75.0,15.0 75.0,0 100.0,25.0 75.0,50.0 75.0,35.0 0,35.0" stroke="#333333" stroke-width="2" fill="#ffffff"/><g ></g></g><g transform='translate(761.0,180.0) rotate(90.0 50.0 25.0)'><polygon points="0,15.0 75.0,15.0 75.0,0 100.0,25.0 75.0,50.0 75.0,35.0 0,35.0" stroke="#333333" stroke-width="2" fill="#ffffff"/><g ></g></g><g transform='translate(246.0,80.0) rotate(0.0 295.0 37.5)'><rect width="590.0" height="75.0" stroke="#333333" stroke-width="2" fill="#ffffff"/><g ></g></g><g transform='translate(427.0,302.5) rotate(0.0 114.0 7.5)'><g  transform='translate(0.0,12.5)'><text x='114.0' style='text-anchor: middle' y='-2.0'><tspan xml:space='preserve' font-size='12' font-family='Arial' fill='#000000' >Entwicklung Master</tspan></text></g></g><g transform='translate(385.0,110.0) rotate(0.0 165.0 7.5)'><g  transform='translate(0.0,12.5)'><text x='165.0' style='text-anchor: middle' y='-2.0'><tspan xml:space='preserve' font-size='12' font-family='Arial' fill='#000000' >Entwicklung einer unabhängigen(!) Erweiterung</tspan></text></g></g></svg>